<?xml version="1.0" encoding="UTF-8" standalone="no"?><svg width="31px" height="27px" viewBox="0 0 31 27" version="1.1" xmlns="http://www.w3.org/2000/svg" xmlns:xlink="http://www.w3.org/1999/xlink" xmlns:sketch="http://www.bohemiancoding.com/sketch/ns">        <title>high-volume</title>    <desc>Created with Sketch.</desc>    <defs>        <filter x="-50%" y="-50%" width="200%" height="200%" filterUnits="objectBoundingBox" id="filter-1">            <feOffset dx="0" dy="0" in="SourceAlpha" result="shadowOffsetOuter1"></feOffset>            <feGaussianBlur stdDeviation="1" in="shadowOffsetOuter1" result="shadowBlurOuter1"></feGaussianBlur>            <feColorMatrix values="0 0 0 0 0.941176471   0 0 0 0 0.960784314   0 0 0 0 0.980392157  0 0 0 0.35 0" in="shadowBlurOuter1" type="matrix" result="shadowMatrixOuter1"></feColorMatrix>            <feMerge>                <feMergeNode in="shadowMatrixOuter1"></feMergeNode>                <feMergeNode in="SourceGraphic"></feMergeNode>            </feMerge>        </filter>    </defs>    <g id="Page-1" stroke="none" stroke-width="1" fill="none" fill-rule="evenodd" sketch:type="MSPage">        <g id="Player-version-1" sketch:type="MSArtboardGroup" transform="translate(-483.000000, -425.000000)" fill-opacity="0.8" filter="url(#filter-1)" fill="#FE4365">            <path d="M508.006634,427 C510.514848,430.175484 512,434.184463 512,438.54247 C512,442.86171 510.541153,446.838104 508.073326,450 L506.943269,449.153405 C509.259206,446.180244 510.649999,442.511691 510.649999,438.54247 C510.649999,434.529472 509.228358,430.823809 506.866302,427.833414 L508.006634,427 L508.006634,427 Z M503.670212,446.701358 C505.497328,444.43686 506.599999,441.609331 506.599999,438.542469 C506.599999,435.41474 505.453124,432.535937 503.56057,430.249419 L502.582658,430.964129 C504.24801,433.084638 505.250001,435.70563 505.250001,438.542469 C505.250001,441.313554 504.293922,443.878681 502.697387,445.972555 L503.670212,446.701358 L503.670212,446.701358 Z M499.69482,443.723149 C501.105141,442.293147 501.973077,440.344575 501.973077,438.197007 C501.973077,436.166632 501.197282,434.314126 499.920805,432.909551 L498.942091,433.624847 C499.975095,434.872615 500.594231,436.463835 500.594231,438.197007 C500.594231,440.041794 499.892784,441.725756 498.737425,443.005905 L499.69482,443.723149 L499.69482,443.723149 Z M485,435.211225 L485,441.873715 L489.725,442.497494 L489.725,434.502506 L485,435.211225 L485,435.211225 Z M489.725,442.539964 L496.475,447.203708 L496.475,429.881232 L489.725,434.544976 L489.725,442.539964 Z" id="high-volume" sketch:type="MSShapeGroup"></path>        </g>    </g></svg>